<svg width="73" height="73" viewBox="0 0 73 73" fill="none" xmlns="http://www.w3.org/2000/svg">
<path d="M35.0857 0.453249C35.9317 -0.151083 37.0683 -0.151083 37.9143 0.453249L71.981 24.7866C72.6205 25.2433 73 25.9808 73 26.7667V70.5667C73 71.9106 71.9106 73 70.5667 73H63.2667V34.0667H9.73333V73H2.43333C1.08944 73 0 71.9106 0 70.5667V26.7667C0 25.9808 0.379517 25.2433 1.01899 24.7866L35.0857 0.453249Z" fill="#F2F2F2"/>
<path fill-rule="evenodd" clip-rule="evenodd" d="M14.6 73H58.4V53.5333H14.6V73ZM43.8 63.2667H29.2V58.4H43.8V63.2667Z" fill="#F2F2F2"/>
<path d="M58.4 48.6667V38.9333H14.6V48.6667H58.4Z" fill="#F2F2F2"/>
</svg>
